# xmcd
#
# Track frame offsets:
#	150
#	17148
#	41958
#	66525
#
# Disc length: 1005 seconds
#
# Revision: 1
# Processed by: cddbd v1.5.2PL0 Copyright (c) Steve Scherf et al.
# Submitted via: audiograbber 1.83.01
#
DISCID=3803eb04
DTITLE=KCD - Bananas To The Beat [CDS)
DYEAR=1994
DGENRE=Dance
TTITLE0=Bananas To The Beat! (Starship KCD Mix)
TTITLE1=Bananas To The Beat! (KCD Samba Latino Mix)
TTITLE2=Bananas To The Beat! (Syv‰j‰‰dytetty Banaani Remix By N.Meril‰inen)
TTITLE3=Artisti Maksaa! (Sairaan Nopee Death Metal Mix)
EXTD=TR.
EXTT0=
EXTT1=
EXTT2=
EXTT3=
PLAYORDER=
